<?xml version="1.0" standalone="no"?>
<!DOCTYPE svg PUBLIC "-//W3C//DTD SVG 20010904//EN"
 "http://www.w3.org/TR/2001/REC-SVG-20010904/DTD/svg10.dtd">
<svg version="1.0" xmlns="http://www.w3.org/2000/svg"
 width="108.000000pt" height="108.000000pt" viewBox="0 0 108.000000 108.000000"
 preserveAspectRatio="xMidYMid meet">

<g transform="translate(0.000000,108.000000) scale(0.100000,-0.100000)"
fill="#000000" stroke="none">
<path d="M450 885 c-110 -31 -200 -113 -243 -222 -10 -25 -16 -47 -15 -49 2
-1 29 6 61 16 43 14 70 32 110 74 85 87 188 106 290 55 20 -11 37 -15 37 -10
0 11 69 36 77 28 3 -4 0 -20 -6 -38 -19 -55 -15 -62 20 -43 25 12 37 14 56 5
34 -16 35 -15 12 23 -76 130 -253 201 -399 161z m170 -47 c0 6 7 9 15 6 16 -7
21 -44 6 -44 -21 0 -41 13 -41 26 0 8 -4 14 -10 14 -5 0 -10 -6 -10 -13 0 -16
-71 -10 -82 7 -5 7 -8 5 -8 -5 0 -19 -42 -33 -71 -24 -14 5 -17 3 -13 -9 3 -9
1 -16 -5 -16 -6 0 -11 4 -11 9 0 5 -3 17 -6 25 -5 12 -2 15 10 10 9 -4 16 -1
16 6 0 9 4 9 18 -1 9 -7 13 -9 9 -4 -5 5 10 14 35 20 36 9 45 9 56 -4 10 -13
12 -12 13 5 0 18 1 18 9 -1 7 -16 9 -17 9 -3 1 25 24 27 44 5 9 -11 17 -15 17
-9z"/>
<path d="M718 748 c-9 -7 -28 -56 -42 -108 -15 -52 -34 -102 -42 -110 -18 -18
-18 -8 1 53 12 40 12 47 0 47 -8 0 -16 -4 -20 -10 -3 -5 -12 -7 -19 -4 -24 9
-73 -23 -85 -56 -6 -16 -16 -43 -22 -60 -6 -16 -15 -30 -20 -30 -11 0 -11 12
0 42 4 13 11 36 15 51 6 27 6 27 -16 16 -13 -7 -32 -12 -44 -10 -26 3 -79 -55
-89 -97 -8 -37 -30 -57 -81 -76 l-40 -14 24 49 c17 33 33 51 53 58 16 5 29 15
29 20 0 7 -8 7 -25 1 -29 -11 -30 -5 -15 51 12 43 38 54 71 31 21 -15 22 -15
15 14 -4 16 -9 30 -11 32 -6 7 -151 -40 -181 -59 -39 -24 -57 -61 -44 -94 5
-14 14 -25 19 -25 6 0 8 7 5 15 -10 25 16 75 47 90 15 8 30 15 32 15 3 0 -8
-41 -23 -91 -19 -59 -39 -102 -56 -120 -15 -16 -25 -31 -22 -34 3 -3 42 6 86
20 56 18 87 34 101 52 17 21 23 23 36 13 12 -10 20 -9 42 6 16 10 38 17 50 15
13 -1 30 7 39 18 13 15 21 17 30 10 9 -7 19 -7 33 1 12 6 21 7 21 2 0 -15 -35
-42 -54 -42 -9 0 -14 -4 -11 -10 17 -28 95 3 95 38 0 21 51 60 71 55 11 -3 28
2 39 12 11 10 26 15 35 11 37 -14 104 33 137 98 15 30 22 36 29 25 15 -24 10
-51 -11 -56 -30 -8 -24 -23 8 -23 34 0 52 16 52 47 0 23 -30 93 -39 93 -15 -1
-31 -19 -54 -67 -26 -51 -72 -96 -91 -90 -20 7 -17 25 6 32 56 17 88 77 48 90
-43 14 -92 -38 -115 -122 -6 -22 -25 -32 -25 -14 0 8 44 169 55 199 2 6 1 12
-3 12 -5 0 -15 -6 -24 -12z m102 -97 c0 -11 -42 -43 -48 -37 -2 3 1 14 8 25
11 21 40 29 40 12z m-220 -65 c0 -14 -32 -75 -44 -86 -13 -10 -16 -10 -17 1
-4 46 19 89 48 89 7 0 13 -2 13 -4z m-160 -45 c0 -17 -29 -78 -43 -90 -33 -27
-24 44 10 81 17 19 33 23 33 9z"/>
<path d="M830 543 c-25 -17 -40 -39 -51 -74 -36 -110 -125 -174 -239 -174 -71
1 -114 18 -165 66 l-30 28 -47 -22 c-26 -12 -47 -26 -48 -31 0 -15 87 -94 127
-114 168 -85 367 -28 471 133 46 72 68 197 36 209 -9 3 -16 6 -17 5 -1 0 -18
-12 -37 -26z m-52 -221 c2 -7 -5 -16 -17 -19 -12 -3 -21 -10 -21 -17 0 -6 -18
-20 -41 -30 -35 -17 -42 -18 -50 -5 -5 7 -9 17 -9 21 0 14 42 30 66 24 19 -5
22 -3 17 10 -7 18 14 35 36 31 8 -1 16 -8 19 -15z m-370 -22 c21 -23 112 -54
112 -38 0 6 11 3 24 -6 14 -8 26 -11 28 -6 2 4 15 11 29 15 21 5 27 2 32 -14
3 -12 1 -21 -4 -21 -10 0 -9 0 -58 -11 -19 -4 -39 -5 -44 -2 -6 3 -26 7 -45 9
-20 2 -38 7 -41 11 -3 4 -13 8 -21 8 -8 0 -14 8 -14 18 2 14 -1 15 -12 6 -21
-18 -47 7 -33 32 12 24 24 24 47 -1z"/>
<path d="M670 280 c-17 -11 -8 -23 14 -18 9 2 12 8 8 15 -5 8 -13 9 -22 3z"/>
<path d="M375 290 c-3 -6 1 -7 9 -4 18 7 21 14 7 14 -6 0 -13 -4 -16 -10z"/>
</g>
</svg>
